<?xml version="1.0" encoding="UTF-8"?>
<svg id="Layer_1" data-name="Layer 1" xmlns="http://www.w3.org/2000/svg" viewBox="0 0 200 200">
  <defs>
    <style>
      .cls-1 {
        fill: none;
      }

      .cls-2, .cls-3, .cls-4, .cls-5, .cls-6, .cls-7 {
        stroke-width: .1px;
      }

      .cls-2, .cls-3, .cls-4, .cls-5, .cls-6, .cls-7, .cls-8 {
        fill: #f5b41a;
        stroke: #85361b;
      }

      .cls-3 {
        stroke-miterlimit: 4;
      }

      .cls-4 {
        stroke-miterlimit: 4;
      }

      .cls-5 {
        stroke-miterlimit: 4;
      }

      .cls-6 {
        stroke-miterlimit: 4;
      }

      .cls-9 {
        fill: #fff;
      }

      .cls-10 {
        fill: #16477f;
      }

      .cls-11 {
        fill: #85361b;
      }

      .cls-12 {
        fill: #75acdd;
      }

      .cls-13 {
        fill: #84371b;
      }

      .cls-7 {
        stroke-miterlimit: 10;
      }

      .cls-8 {
        stroke-width: .15px;
      }
    </style>
  </defs>
  <rect class="cls-1" y="0" width="200" height="200"/>
  <path class="cls-12" d="m200,87.5v65.83c0,11.97-9.7,21.67-21.67,21.67H46.67c-11.97,0-21.67-9.7-21.67-21.67v-65.83h175Z"/>
  <rect class="cls-9" x="25" y="116.67" width="175" height="29.16"/>
  <g>
    <g id="rays">
      <path id="ray1" class="cls-2" d="m112.39,131.47l5.94,12.94s.1.25.27.18c.16-.07.06-.32.06-.32l-4.95-13.35m-.14,5.03c-.07,1.97,1.14,3.05.98,4.81-.16,1.76.81,2.75,1.03,3.43.22.68-.24,1.09-.04,1.19.2.1.64-.44.5-1.41-.14-.97-.88-1.26-.71-3.41.17-2.15-.88-2.65-.62-4.6"/>
      <path id="ray1-2" data-name="ray1" class="cls-5" d="m112.34,131.2l.54,14.23s0,.27.18.27c.18,0,.18-.27.18-.27l.54-14.23m-2.06,4.6c-.82,1.79-.12,3.25-.93,4.82-.82,1.56-.31,2.85-.36,3.57-.05.72-.64.92-.49,1.08.15.17.76-.16,1-1.12.24-.95-.33-1.5.65-3.42.98-1.92.2-2.78,1.19-4.49"/>
      <path id="ray1-3" data-name="ray1" class="cls-3" d="m112.39,130.92l-4.95,13.35s-.1.25.06.32c.16.07.27-.18.27-.18l5.94-12.94m-3.66,3.46c-1.44,1.34-1.35,2.96-2.71,4.09-1.35,1.13-1.37,2.52-1.7,3.16-.32.64-.94.6-.87.81.07.21.77.14,1.35-.65.59-.79.27-1.51,1.91-2.91,1.64-1.39,1.25-2.49,2.82-3.69"/>
      <path id="ray1-4" data-name="ray1" class="cls-4" d="m112.55,130.69l-9.68,10.44s-.19.19-.06.32c.13.13.32-.06.32-.06l10.44-9.68m-4.7,1.8c-1.85.69-2.38,2.22-4.07,2.74-1.68.53-2.23,1.8-2.78,2.27-.55.47-1.1.19-1.11.42-.01.22.65.42,1.5-.08.84-.5.83-1.3,2.88-1.96,2.05-.66,2.11-1.82,4.01-2.34"/>
      <path id="ray2" class="cls-11" d="m113.95,136.29c.09,1.89,1.17,2.73.96,4.45.46-1.36-.65-2.42-.59-4.43l-.37-.02Zm-1.23-4.94l4.07,8.89-3.41-9.16-.66.27Z"/>
      <path id="ray2-2" data-name="ray2" class="cls-11" d="m111.94,136.25c-.64,1.78.03,2.96-.82,4.48.95-1.08.32-2.48,1.15-4.32l-.33-.16Zm.75-5.03l.36,9.77.36-9.77h-.71Z"/>
      <path id="ray2-3" data-name="ray2" class="cls-11" d="m110.09,135.44c-1.27,1.4-1.1,2.75-2.47,3.82,1.29-.64,1.25-2.17,2.72-3.55l-.25-.27Zm2.62-4.36l-3.41,9.16,4.07-8.89-.66-.27Z"/>
      <path id="ray2-4" data-name="ray2" class="cls-11" d="m108.69,133.98c-1.71.81-2.07,2.12-3.74,2.59,1.43-.09,1.98-1.53,3.87-2.24l-.12-.35Zm4.09-3.03l-6.65,7.16,7.16-6.65-.5-.5Z"/>
    </g>
    <g id="rays-2" data-name="rays">
      <path id="ray1-5" data-name="ray1" class="cls-2" d="m112.78,130.54l-12.94,5.94s-.25.1-.18.27c.07.16.32.06.32.06l13.35-4.95m-5.03-.14c-1.97-.07-3.05,1.14-4.81.98-1.76-.16-2.75.81-3.43,1.03-.68.22-1.09-.24-1.19-.04-.1.2.44.64,1.41.5.97-.14,1.26-.88,3.41-.71,2.15.17,2.65-.88,4.6-.62"/>
      <path id="ray1-6" data-name="ray1" class="cls-4" d="m113.05,130.48l-14.23.54s-.27,0-.27.18c0,.18.27.18.27.18l14.23.54m-4.6-2.06c-1.79-.82-3.25-.12-4.82-.93-1.56-.82-2.85-.31-3.57-.36-.72-.05-.92-.64-1.08-.49-.17.15.16.76,1.12,1,.95.24,1.5-.33,3.42.65,1.92.98,2.78.2,4.49,1.19"/>
      <path id="ray1-7" data-name="ray1" class="cls-3" d="m113.33,130.54l-13.35-4.95s-.25-.1-.32.06c-.07.16.18.27.18.27l12.94,5.94m-3.46-3.66c-1.34-1.44-2.96-1.35-4.09-2.71-1.13-1.35-2.52-1.37-3.16-1.7-.64-.32-.6-.94-.81-.87-.21.07-.14.77.65,1.35.79.59,1.51.27,2.91,1.91,1.39,1.64,2.49,1.25,3.69,2.82"/>
      <path id="ray1-8" data-name="ray1" class="cls-5" d="m113.56,130.69l-10.44-9.68s-.19-.19-.32-.06c-.13.13.06.32.06.32l9.68,10.44m-1.8-4.7c-.69-1.85-2.22-2.38-2.74-4.07-.53-1.68-1.8-2.23-2.27-2.78-.47-.55-.19-1.1-.42-1.11-.22-.01-.42.65.08,1.5.5.84,1.3.83,1.96,2.88.66,2.05,1.82,2.11,2.34,4.01"/>
      <path id="ray2-5" data-name="ray2" class="cls-11" d="m107.96,132.1c-1.89.09-2.73,1.17-4.45.96,1.36.46,2.42-.65,4.43-.59l.02-.37Zm4.94-1.23l-8.89,4.07,9.16-3.41-.27-.66Z"/>
      <path id="ray2-6" data-name="ray2" class="cls-11" d="m108,130.08c-1.78-.64-2.96.03-4.48-.82,1.08.95,2.48.32,4.32,1.15l.16-.33Zm5.03.75l-9.77.36,9.77.36v-.71Z"/>
      <path id="ray2-7" data-name="ray2" class="cls-11" d="m108.82,128.23c-1.4-1.27-2.75-1.1-3.82-2.47.64,1.29,2.17,1.25,3.55,2.72l.27-.25Zm4.36,2.62l-9.16-3.41,8.89,4.07.27-.66Z"/>
      <path id="ray2-8" data-name="ray2" class="cls-11" d="m110.27,126.83c-.81-1.71-2.12-2.07-2.59-3.74.09,1.43,1.53,1.98,2.24,3.87l.35-.12Zm3.03,4.09l-7.16-6.65,6.65,7.16.5-.5Z"/>
    </g>
    <g id="rays-3" data-name="rays">
      <path id="ray1-9" data-name="ray1" class="cls-2" d="m113.71,130.92l-5.94-12.94s-.1-.25-.27-.18c-.16.07-.06.32-.06.32l4.95,13.35m.14-5.03c.07-1.97-1.14-3.05-.98-4.81.16-1.76-.81-2.75-1.03-3.43-.22-.68.24-1.09.04-1.19-.2-.1-.64.44-.5,1.41.14.97.88,1.26.71,3.41-.17,2.15.88,2.65.62,4.6"/>
      <path id="ray1-10" data-name="ray1" class="cls-5" d="m113.77,131.2l-.54-14.23s0-.27-.18-.27c-.18,0-.18.27-.18.27l-.54,14.23m2.06-4.6c.82-1.79.12-3.25.93-4.82.82-1.56.31-2.85.36-3.57.05-.72.64-.92.49-1.08-.15-.17-.76.16-1,1.12-.24.95.33,1.5-.65,3.42-.98,1.92-.2,2.78-1.19,4.49"/>
      <path id="ray1-11" data-name="ray1" class="cls-3" d="m113.71,131.47l4.95-13.35s.1-.25-.06-.32c-.16-.07-.27.18-.27.18l-5.94,12.94m3.66-3.46c1.44-1.34,1.35-2.96,2.71-4.09,1.35-1.13,1.37-2.52,1.7-3.16.32-.64.94-.6.87-.81-.07-.21-.77-.14-1.35.65-.59.79-.27,1.51-1.91,2.91-1.64,1.39-1.25,2.49-2.82,3.69"/>
      <path id="ray1-12" data-name="ray1" class="cls-4" d="m113.56,131.7l9.68-10.44s.19-.19.06-.32c-.13-.13-.32.06-.32.06l-10.44,9.68m4.7-1.8c1.85-.69,2.38-2.22,4.07-2.74,1.68-.53,2.23-1.8,2.78-2.27.55-.47,1.1-.19,1.11-.42.01-.22-.65-.42-1.5.08-.84.5-.83,1.3-2.88,1.96-2.05.66-2.11,1.82-4.01,2.34"/>
      <path id="ray2-9" data-name="ray2" class="cls-11" d="m112.15,126.1c-.09-1.89-1.17-2.73-.96-4.45-.46,1.36.65,2.42.59,4.43l.37.02Zm1.23,4.94l-4.07-8.89,3.41,9.16.66-.27Z"/>
      <path id="ray2-10" data-name="ray2" class="cls-11" d="m114.17,126.15c.64-1.78-.03-2.96.82-4.48-.95,1.08-.32,2.48-1.15,4.32l.33.16Zm-.75,5.03l-.36-9.77-.36,9.77h.71Z"/>
      <path id="ray2-11" data-name="ray2" class="cls-11" d="m116.02,126.96c1.27-1.4,1.1-2.75,2.47-3.82-1.29.64-1.25,2.17-2.72,3.55l.25.27Zm-2.62,4.36l3.41-9.16-4.07,8.89.66.27Z"/>
      <path id="ray2-12" data-name="ray2" class="cls-11" d="m117.42,128.42c1.71-.81,2.07-2.12,3.74-2.59-1.43.09-1.98,1.53-3.87,2.24l.12.35Zm-4.09,3.03l6.65-7.16-7.16,6.65.5.5Z"/>
    </g>
    <g id="rays-4" data-name="rays">
      <path id="ray1-13" data-name="ray1" class="cls-2" d="m113.33,131.86l12.94-5.94s.25-.1.18-.27c-.07-.16-.32-.06-.32-.06l-13.35,4.95m5.03.14c1.97.07,3.05-1.14,4.81-.98,1.76.16,2.75-.81,3.43-1.03.68-.22,1.09.24,1.19.04.1-.2-.44-.64-1.41-.5-.97.14-1.26.88-3.41.71-2.15-.17-2.65.88-4.6.62"/>
      <path id="ray1-14" data-name="ray1" class="cls-6" d="m113.05,131.91l14.23-.54s.27,0,.27-.18c0-.18-.27-.18-.27-.18l-14.23-.54m4.6,2.06c1.79.82,3.25.12,4.82.93,1.56.82,2.85.31,3.57.36.72.05.92.64,1.08.49.17-.15-.16-.76-1.12-1-.95-.24-1.5.33-3.42-.65-1.92-.98-2.78-.2-4.49-1.19"/>
      <path id="ray1-15" data-name="ray1" class="cls-3" d="m112.78,131.86l13.35,4.95s.25.1.32-.06c.07-.16-.18-.27-.18-.27l-12.94-5.94m3.46,3.66c1.34,1.44,2.96,1.35,4.09,2.71,1.13,1.35,2.52,1.37,3.16,1.7.64.32.6.94.81.87.21-.07.14-.77-.65-1.35-.79-.59-1.51-.27-2.91-1.91-1.39-1.64-2.49-1.25-3.69-2.82"/>
      <path id="ray1-16" data-name="ray1" class="cls-7" d="m112.55,131.7l10.44,9.68s.19.19.32.06c.13-.13-.06-.32-.06-.32l-9.68-10.44m1.8,4.7c.69,1.85,2.22,2.38,2.74,4.07.53,1.68,1.8,2.23,2.27,2.78.47.55.19,1.1.42,1.11.22.01.42-.65-.08-1.5-.5-.84-1.3-.83-1.96-2.88-.66-2.05-1.82-2.11-2.34-4.01"/>
      <path id="ray2-13" data-name="ray2" class="cls-11" d="m118.15,130.3c1.89-.09,2.73-1.17,4.45-.96-1.36-.46-2.42.65-4.43.59l-.02.37Zm-4.94,1.23l8.89-4.07-9.16,3.41.27.66Z"/>
      <path id="ray2-14" data-name="ray2" class="cls-11" d="m118.11,132.32c1.78.64,2.96-.03,4.48.82-1.08-.95-2.48-.32-4.32-1.15l-.16.33Zm-5.03-.75l9.77-.36-9.77-.36v.71Z"/>
      <path id="ray2-15" data-name="ray2" class="cls-11" d="m117.29,134.16c1.4,1.27,2.75,1.1,3.82,2.47-.64-1.29-2.17-1.25-3.55-2.72l-.27.25Zm-4.36-2.62l9.16,3.41-8.89-4.07-.27.66Z"/>
      <path id="ray2-16" data-name="ray2" class="cls-11" d="m115.83,135.56c.81,1.71,2.12,2.07,2.59,3.74-.09-1.43-1.53-1.98-2.24-3.87l-.35.12Zm-3.03-4.09l7.16,6.65-6.65-7.16-.5.5Z"/>
    </g>
    <circle class="cls-8" cx="113.05" cy="131.2" r="5.8"/>
    <g>
      <path id="loweyecontour" class="cls-13" d="m115.03,129.96c-.4,0-.77.17-1,.53.45.4,1.43.44,2.1-.05-.29-.31-.71-.48-1.1-.48h0Zm0,.09c.39,0,.75.17.8.35-.45.49-1.16.45-1.6.09.2-.31.51-.43.81-.44h0Z"/>
      <path id="uppalpebra" class="cls-11" d="m115.11,129.68c-.58,0-.71.13-.98.36-.27.22-.4.18-.45.22-.04.04,0,.18.09.13s.27-.13.53-.36c.27-.22.53-.22.8-.22.8,0,1.25.67,1.34.62.09-.04-.45-.76-1.34-.76h0Z"/>
      <path id="eyebrow_nose" data-name="eyebrow nose" class="cls-11" d="m116.71,129.95c-1.03-.89-2.32-1.03-3.03-.36-.17.23-.29.48-.33.74-.09.51.07,1.06.47,1.62-.04,0-.13.04-.18.09-.35-.68-.48-1.37-.36-2.03.03-.17.08-.34.14-.51.98-.8,2.32-.89,3.3.45h0Z"/>
      <circle id="pupil" class="cls-11" cx="115.02" cy="130.39" r=".4"/>
      <path id="lowpalpebra" class="cls-11" d="m116.18,130.66c-.76.58-1.52.54-1.96.27-.45-.27-.45-.36-.36-.36s.18.09.53.27c.36.18.89.18,1.78-.18h0Z"/>
      <path class="cls-11" d="m112.17,132c-.19.03-.33.2-.33.4,0,.22.18.4.4.4.13,0,.25-.06.33-.17.15.12.37.13.48.13.02,0,.04,0,.05,0,.11,0,.33-.01.48-.13.08.11.2.17.33.17.22,0,.4-.18.4-.4,0-.19-.14-.36-.33-.4.11.04.18.14.18.25,0,.15-.12.27-.27.27s-.26-.11-.27-.25c-.04.09-.22.35-.55.36-.34-.01-.51-.27-.55-.36,0,.14-.13.25-.27.25s-.27-.12-.27-.27c0-.11.07-.22.18-.25h0Z"/>
      <path class="cls-11" d="m112.6,133.19c-.45,0-.62.4-1.02.67.22-.09.4-.26.71-.44.31-.18.58.04.76.04h0c.18,0,.44-.22.76-.04.31.18.49.35.72.44-.4-.27-.58-.67-1.03-.67-.09,0-.27.05-.44.14h0c-.18-.09-.35-.14-.44-.14Z"/>
      <path class="cls-11" d="m112.45,133.71c-.18,0-.41.04-.74.14.8-.18.98.09,1.34.09h0c.36,0,.53-.27,1.34-.09-.89-.27-1.07-.09-1.34-.09h0c-.17,0-.3-.07-.59-.05h0Z"/>
      <path class="cls-11" d="m111.75,133.85c-.05,0-.11,0-.17,0,.94.09.49.63,1.47.63h0c.98,0,.54-.54,1.47-.63-.98-.09-.67.49-1.47.49h0c-.75,0-.52-.51-1.3-.5h0Z"/>
      <path class="cls-11" d="m113.86,135.3c0-.44-.36-.8-.8-.8s-.8.36-.8.8c.09-.37.42-.63.8-.63s.71.26.8.63h0Z"/>
      <path id="eyebrow_nose-2" data-name="eyebrow nose" class="cls-11" d="m109.45,129.95c1.03-.89,2.32-1.03,3.03-.36.17.23.29.48.33.74.09.51-.07,1.06-.47,1.62.04,0,.13.04.18.09.35-.68.48-1.37.36-2.03-.03-.17-.08-.34-.14-.51-.98-.8-2.32-.89-3.3.45h0Z"/>
      <path id="uppalpebra-2" data-name="uppalpebra" class="cls-11" d="m111.06,129.68c.58,0,.71.13.98.36.27.22.4.18.45.22.04.04,0,.18-.09.13s-.27-.13-.53-.36c-.27-.22-.53-.22-.8-.22-.8,0-1.25.67-1.34.62-.09-.04.45-.76,1.34-.76h0Z"/>
      <path id="loweyecontour-2" data-name="loweyecontour" class="cls-13" d="m111.03,129.96c-.4,0-.77.17-1,.53.45.4,1.43.44,2.1-.05-.29-.31-.71-.48-1.1-.48h0Zm0,.09c.39,0,.75.17.8.35-.45.49-1.16.45-1.6.09.2-.31.51-.43.81-.44h0Z"/>
      <circle id="pupil-2" data-name="pupil" class="cls-11" cx="111.08" cy="130.39" r=".4"/>
      <path id="lowpalpebra-2" data-name="lowpalpebra" class="cls-11" d="m109.98,130.66c.76.58,1.52.54,1.96.27.45-.27.45-.36.36-.36s-.18.09-.53.27c-.36.18-.89.18-1.78-.18h0Z"/>
    </g>
  </g>
  <path class="cls-10" d="m200,21.67v65.83H25V21.67C25,9.7,34.7,0,46.67,0h131.66c11.97,0,21.67,9.7,21.67,21.67Z"/>
  <path class="cls-9" d="m65.65,47.72c.5.17,1.07.41,1.73.74,1.15.66,2.14,1.57,2.97,2.72.99,1.65,1.48,3.62,1.48,5.93,0,7.91-4.78,11.86-14.33,11.86h-18.53c-.5,0-.74-.25-.74-.74V30.17c0-.5.25-.74.74-.74h19.52c3.46,0,6.26.95,8.4,2.84,2.14,1.89,3.21,4.41,3.21,7.54,0,1.81-.41,3.42-1.23,4.82-.83,1.4-1.9,2.43-3.22,3.09Zm-8.4,15.56c2.8,0,4.86-.45,6.18-1.36,1.31-.9,1.98-2.47,1.98-4.69s-.66-3.79-1.98-4.69c-1.32-.9-3.38-1.36-6.18-1.36h-11.61c-.66,0-.99.25-.99.74v10.63c0,.5.33.74.99.74h11.61Zm-11.61-28.18c-.5,0-.74.25-.74.74v8.89c0,.5.25.74.74.74h11.37c4.28,0,6.42-1.73,6.42-5.19s-2.14-5.19-6.42-5.19h-11.37Zm60.04,12.6c.5.17.99.41,1.48.74,1.31.66,2.3,1.57,2.97,2.72,1.15,1.65,1.73,3.62,1.73,5.93,0,7.91-4.78,11.86-14.33,11.86h-18.53c-.5,0-.74-.25-.74-.74V30.17c0-.5.25-.74.74-.74h19.52c3.29,0,6.05.95,8.28,2.84,2.22,1.89,3.34,4.41,3.34,7.54,0,1.81-.41,3.42-1.23,4.82-.83,1.4-1.9,2.43-3.22,3.09Zm-20.26-12.6c-.5,0-.74.25-.74.74v8.89c0,.5.25.74.74.74h11.61c4.28,0,6.42-1.73,6.42-5.19s-2.14-5.19-6.42-5.19h-11.61Zm11.86,28.17c2.8,0,4.86-.45,6.18-1.36,1.31-.9,1.98-2.47,1.98-4.69s-.66-3.79-1.98-4.69c-1.32-.9-3.38-1.36-6.18-1.36h-11.86c-.5,0-.74.25-.74.74v10.63c0,.5.25.74.74.74h11.86Zm49.91-33.37c.16-.33.33-.5.5-.5h6.42c.16,0,.33.09.5.25.16.17.16.33,0,.5l-20.51,38.55c-.17.17-.37.25-.62.25s-.46-.08-.62-.25l-20.51-38.55c-.17-.16-.21-.33-.12-.5.08-.16.29-.25.62-.25h6.18c.33,0,.58.17.74.5l13.09,24.71c0,.17.16.25.5.25s.58-.08.74-.25l13.09-24.71Zm7.41,32.87c-.17.33-.41.5-.74.5h-6.42c-.17,0-.29-.08-.37-.25-.09-.16-.12-.33-.12-.5l20.51-38.55c.16-.16.41-.25.74-.25s.58.09.74.25l20.5,38.55c0,.17-.04.33-.12.5-.09.17-.21.25-.37.25h-6.42c-.33,0-.58-.16-.74-.5l-12.85-24.71c-.17-.33-.41-.5-.74-.5s-.58.17-.74.5l-12.84,24.71Z"/>
</svg>