<?xml version="1.0" encoding="UTF-8"?>
<svg id="Layer_1" data-name="Layer 1" xmlns="http://www.w3.org/2000/svg" viewBox="0 0 200 200">
  <defs>
    <style>
      .cls-1 {
        fill: none;
      }

      .cls-2 {
        fill: #004482;
      }

      .cls-3 {
        fill: #00599c;
      }

      .cls-4 {
        fill: #fff;
      }

      .cls-5 {
        fill: #659ad2;
      }
    </style>
  </defs>
  <rect class="cls-1" width="200" height="200"/>
  <rect class="cls-1" x="25" width="175" height="175" rx="21.67" ry="21.67"/>
  <path class="cls-3" d="m188.28,131.25c1.22-2.11,1.98-4.5,1.98-6.63V50.38c0-2.14-.76-4.52-1.98-6.63l-75.78,43.75,75.78,43.75Z"/>
  <path class="cls-2" d="m119.23,173.4l64.29-37.12c1.85-1.07,3.54-2.92,4.76-5.03l-75.78-43.75-75.78,43.75c1.22,2.11,2.9,3.96,4.76,5.03l64.29,37.12c3.7,2.14,9.76,2.14,13.47,0Z"/>
  <path class="cls-5" d="m188.28,43.75c-1.22-2.11-2.9-3.96-4.76-5.03L119.23,1.6c-3.7-2.14-9.76-2.14-13.47,0L41.48,38.72c-3.7,2.14-6.73,7.39-6.73,11.66v74.23c0,2.14.76,4.52,1.98,6.63l75.78-43.75,75.78-43.75Z"/>
  <path class="cls-4" d="m112.5,139.34c-28.58,0-51.84-23.25-51.84-51.84s23.25-51.84,51.84-51.84c18.44,0,35.65,9.93,44.89,25.9l-22.43,12.98c-4.63-8-13.23-12.97-22.46-12.97-14.29,0-25.92,11.63-25.92,25.92s11.63,25.92,25.92,25.92c9.22,0,17.83-4.97,22.46-12.97l22.43,12.98c-9.25,15.98-26.45,25.9-44.89,25.9Z"/>
  <polygon class="cls-4" points="164.34 84.62 158.58 84.62 158.58 78.86 152.82 78.86 152.82 84.62 147.06 84.62 147.06 90.38 152.82 90.38 152.82 96.14 158.58 96.14 158.58 90.38 164.34 90.38 164.34 84.62"/>
  <polygon class="cls-4" points="185.94 84.62 180.18 84.62 180.18 78.86 174.42 78.86 174.42 84.62 168.66 84.62 168.66 90.38 174.42 90.38 174.42 96.14 180.18 96.14 180.18 90.38 185.94 90.38 185.94 84.62"/>
</svg>