<?xml version="1.0" encoding="UTF-8"?>
<svg id="Layer_1" data-name="Layer 1" xmlns="http://www.w3.org/2000/svg" viewBox="0 0 200 200">
  <defs>
    <style>
      .cls-1 {
        fill: none;
      }

      .cls-2 {
        fill: #659ad2;
      }

      .cls-2, .cls-3, .cls-4, .cls-5 {
        fill-rule: evenodd;
      }

      .cls-3 {
        fill: #fff;
      }

      .cls-4 {
        fill: #00599c;
      }

      .cls-5 {
        fill: #004482;
      }
    </style>
  </defs>
  <rect class="cls-1" y="0" width="200" height="200"/>
  <rect class="cls-1" x="25" y="0" width="175" height="175" rx="21.67" ry="21.67"/>
  <path id="path2" class="cls-5" d="m107.93,1.19c2.83-1.59,6.31-1.59,9.14,0,13.98,7.85,56.05,31.46,70.03,39.31,2.83,1.58,4.57,4.52,4.57,7.69v78.61c0,3.17-1.74,6.11-4.57,7.7-13.98,7.85-56.05,31.46-70.03,39.31-2.83,1.59-6.31,1.59-9.14,0-13.98-7.85-56.05-31.46-70.03-39.31-2.82-1.59-4.57-4.52-4.57-7.69V48.2c0-3.17,1.74-6.11,4.57-7.7,13.97-7.85,56.05-31.46,70.02-39.31h0Z"/>
  <path id="path4" class="cls-2" d="m34.6,130.85c-1.11-1.48-1.27-2.89-1.27-4.79V47.9c0-3.16,1.74-6.07,4.56-7.65,13.93-7.8,55.85-31.28,69.78-39.08,2.82-1.58,6.64-1.55,9.46.03,13.93,7.8,55.71,31.08,69.64,38.88,1.13.63,1.98,1.4,2.75,2.4L34.6,130.85Z"/>
  <path id="path6" class="cls-3" d="m112.5,29.17c32.2,0,58.33,26.14,58.33,58.33s-26.14,58.33-58.33,58.33-58.33-26.14-58.33-58.33,26.14-58.33,58.33-58.33Zm0,29.17c16.1,0,29.17,13.07,29.17,29.17s-13.07,29.17-29.17,29.17-29.17-13.07-29.17-29.17,13.07-29.17,29.17-29.17Z"/>
  <path id="path8" class="cls-4" d="m189.52,42.52c2.15,2.01,2.11,5.05,2.11,7.43,0,15.81-.13,60.79.04,76.6.02,1.65-.53,3.39-1.35,4.7l-79.52-43.75,78.72-44.98Z"/>
</svg>