<?xml version="1.0" encoding="UTF-8"?>
<svg id="Layer_1" data-name="Layer 1" xmlns="http://www.w3.org/2000/svg" viewBox="0 0 200 200">
  <defs>
    <style>
    <style> 
      .cls-1 {
        fill: none;
      }
      .cls-2 {
        fill: #f05133;
      }
    </style>
  </defs>
  <rect class="cls-1" y="0" width="200" height="200"/>
  <rect class="cls-1" x="25" y="0" width="175" height="175" rx="21.67" ry="21.67"/>
  <path class="cls-2" d="m196.7,79.7L120.29,3.3c-4.4-4.4-11.54-4.4-15.94,0l-15.86,15.87,20.13,20.13c4.68-1.58,10.04-.52,13.77,3.21,3.75,3.75,4.8,9.16,3.18,13.86l19.4,19.4c4.69-1.62,10.11-.57,13.86,3.18,5.24,5.24,5.24,13.72,0,18.97-5.24,5.24-13.73,5.24-18.97,0-3.94-3.94-4.91-9.73-2.92-14.58l-18.09-18.09v47.61c1.28.63,2.48,1.47,3.54,2.54,5.24,5.24,5.24,13.72,0,18.97-5.24,5.24-13.73,5.24-18.96,0-5.24-5.25-5.24-13.73,0-18.97,1.3-1.29,2.79-2.27,4.39-2.93v-48.05c-1.6-.66-3.09-1.62-4.39-2.93-3.97-3.97-4.92-9.79-2.89-14.66l-19.84-19.84-52.39,52.39c-4.4,4.41-4.4,11.54,0,15.94l76.41,76.41c4.4,4.4,11.53,4.4,15.94,0l76.05-76.05c4.4-4.4,4.4-11.54,0-15.94Z"/>
</svg>
