<?xml version="1.0" encoding="UTF-8"?>
<svg id="Layer_1" data-name="Layer 1" xmlns="http://www.w3.org/2000/svg" viewBox="0 0 200 200">
  <defs>
    <style>
      .cls-1 {
        fill: none;
      }

      .cls-2 {
        fill: #f7df1e;
      }
    </style>
  </defs>
  <rect class="cls-1" width="200" height="200"/>
  <rect class="cls-2" x="25" width="175" height="175" rx="21.67" ry="21.67"/>
  <path d="m142.59,136.88c3.53,5.76,8.12,10,16.24,10,6.82,0,11.18-3.41,11.18-8.12,0-5.65-4.48-7.65-11.99-10.93l-4.12-1.77c-11.88-5.06-19.77-11.4-19.77-24.81,0-12.35,9.41-21.75,24.11-21.75,10.47,0,17.99,3.64,23.42,13.18l-12.82,8.23c-2.82-5.06-5.87-7.06-10.6-7.06s-7.88,3.06-7.88,7.06c0,4.94,3.06,6.94,10.12,10l4.12,1.76c13.99,6,21.89,12.11,21.89,25.86,0,14.82-11.64,22.94-27.28,22.94s-25.17-7.29-30-16.84l13.38-7.77Zm-58.16,1.43c2.59,4.59,4.94,8.47,10.6,8.47s8.82-2.12,8.82-10.35v-55.98h16.46v56.2c0,17.05-10,24.81-24.58,24.81-13.18,0-20.82-6.82-24.7-15.04l13.4-8.11Z"/>
</svg>