<?xml version="1.0" encoding="UTF-8"?>
<svg id="Layer_1" data-name="Layer 1" xmlns="http://www.w3.org/2000/svg" viewBox="0 0 200 200">
  <defs>
    <style>
      .cls-1 {
        fill: none;
      }

      .cls-2 {
        fill: #f58219;
      }

      .cls-3 {
        fill: #4e7896;
      }
    </style>
  </defs>
  <rect class="cls-1" width="200" height="200"/>
  <rect class="cls-1" x="25" width="175" height="175" rx="21.67" ry="21.67"/>
  <g id="layer1">
    <g id="Ebene_1">
      <g id="_198302696" data-name=" 198302696">
        <path id="_227268128" data-name=" 227268128" class="cls-3" d="m89.66,135.29s-6.72,4.09,4.68,5.26c13.73,1.75,21.04,1.46,36.23-1.46,0,0,4.09,2.63,9.64,4.68-34.19,14.61-77.43-.88-50.55-8.47h0Zm-4.38-18.99s-7.3,5.55,4.09,6.72c14.9,1.46,26.59,1.75,46.75-2.34,0,0,2.63,2.92,7.01,4.38-41.2,12.27-87.37,1.17-57.86-8.77h0Zm80.65,33.31s4.97,4.09-5.55,7.3c-19.58,5.84-82.11,7.6-99.64,0-6.14-2.63,5.55-6.43,9.35-7.01,3.8-.88,5.84-.88,5.84-.88-6.72-4.68-44.71,9.64-19.29,13.73,69.84,11.4,127.4-4.97,109.28-13.15h0Zm-73.05-53.18s-31.85,7.6-11.4,10.23c8.77,1.17,26.01.88,42.08-.29,13.15-1.17,26.3-3.51,26.3-3.51,0,0-4.68,2.05-7.89,4.09-32.43,8.47-94.67,4.68-76.85-4.09,15.19-7.31,27.76-6.43,27.76-6.43h0Zm56.98,31.85c32.73-16.95,17.53-33.31,7.01-31.27-2.63.58-3.8,1.17-3.8,1.17,0,0,.88-1.75,2.92-2.34,20.75-7.31,37.11,21.91-6.72,33.31,0,0,.29-.29.58-.88h0Zm-53.77,46.17c31.56,2.05,79.77-1.17,80.94-16.07,0,0-2.34,5.84-26.01,10.23-26.88,4.97-60.19,4.38-79.77,1.17,0,0,4.09,3.51,24.84,4.68h0Z"/>
        <path id="_230367536" data-name=" 230367536" class="cls-2" d="m129.98,0s18.12,18.41-17.24,46.17c-28.34,22.5-6.43,35.36,0,49.97-16.66-14.9-28.64-28.05-20.45-40.32C104.27,37.69,137.28,28.93,129.98,0h0Zm-9.35,83.86c8.47,9.64-2.34,18.41-2.34,18.41,0,0,21.62-11.1,11.69-24.84-9.06-13.15-16.07-19.58,21.91-41.49,0,0-59.9,14.9-31.27,47.92h0Z"/>
      </g>
    </g>
  </g>
</svg>