<?xml version="1.0" encoding="UTF-8"?>
<svg id="Layer_1" data-name="Layer 1" xmlns="http://www.w3.org/2000/svg" viewBox="0 0 200 200">
  <defs>
    <style>
      .cls-1 {
        fill: none;
      }

      .cls-2 {
        fill: #fff;
      }
    </style>
  </defs>
  <rect class="cls-1" width="200" height="200"/>
  <rect class="cls-1" x="25" width="175" height="175" rx="21.67" ry="21.67"/>
  <circle class="cls-2" cx="112.5" cy="87.5" r="87.5"/>
  <g id="Page-1">
    <g id="Black-Next.js">
      <g id="next-black">
        <g id="EXT-_-Type-something" data-name="EXT-+-Type-something">
          <path id="EXT" d="m82.07,70.39h21.74v1.72h-19.75v12.94h18.57v1.72h-18.57v14.21h19.97v1.72h-21.97v-32.31Zm23.69,0h2.31l10.24,14.21,10.46-14.21,14.23-18.05-23.38,33.75,12.05,16.61h-2.4l-10.96-15.11-11.01,15.11h-2.36l12.14-16.61-11.32-15.7Zm26.77,1.72v-1.72h24.77v1.72h-11.41v30.59h-1.99v-30.59h-11.37Z"/>
          <polygon id="Type-something" points="54.87 70.39 57.36 70.39 91.71 121.54 77.51 102.7 56.95 72.83 56.86 102.7 54.87 102.7 54.87 70.39"/>
        </g>
        <path id="_.JS" data-name=".JS" d="m157.09,100.46c.41,0,.71-.31.71-.72s-.3-.72-.71-.72-.71.31-.71.72.31.72.71.72Zm1.96-1.89c0,1.2.87,1.98,2.13,1.98,1.35,0,2.16-.81,2.16-2.21v-4.93h-1.09v4.93c0,.78-.39,1.19-1.09,1.19-.62,0-1.04-.39-1.06-.96h-1.07Zm5.71-.06c.08,1.25,1.12,2.04,2.67,2.04,1.66,0,2.69-.84,2.69-2.17,0-1.05-.59-1.63-2.03-1.96l-.77-.19c-.91-.21-1.28-.5-1.28-.99,0-.63.57-1.04,1.43-1.04s1.38.4,1.48,1.04h1.06c-.06-1.17-1.1-2-2.52-2-1.53,0-2.54.83-2.54,2.07,0,1.02.58,1.63,1.84,1.93l.9.22c.93.22,1.33.54,1.33,1.07,0,.62-.64,1.07-1.51,1.07-.94,0-1.58-.42-1.68-1.08h-1.08Z"/>
      </g>
    </g>
  </g>
</svg>