<?xml version="1.0" encoding="UTF-8"?>
<svg id="Layer_1" data-name="Layer 1" xmlns="http://www.w3.org/2000/svg" xmlns:xlink="http://www.w3.org/1999/xlink" viewBox="0 0 200.36 200">
  <defs>
    <style>
      .cls-1 {
        fill: none;
      }

      .cls-2 {
        mask: url(#mask);
      }

      .cls-3, .cls-4 {
        fill: #fff;
      }

      .cls-5 {
        fill: #00a1e0;
      }

      .cls-5, .cls-4, .cls-6 {
        fill-rule: evenodd;
      }

      .cls-6 {
        fill: #fffffe;
      }
    </style>
    <mask id="mask" x="24.64" y="25.95" width="175.83" height="123.06" maskUnits="userSpaceOnUse">
      <g id="b">
        <path id="a" class="cls-4" d="m24.83,25.95h175.63v122.68H24.83V25.95Z"/>
      </g>
    </mask>
  </defs>
  <rect class="cls-1" width="200" height="200"/>
  <rect class="cls-3" x="25" width="175" height="175" rx="21.67" ry="21.67"/>
  <g>
    <g class="cls-2">
      <path class="cls-5" d="m97.76,39.38c5.67-5.9,13.56-9.56,22.28-9.56,11.62,0,21.7,6.46,27.12,16.08,4.81-2.15,10.03-3.26,15.3-3.26,20.92,0,37.9,17.11,37.9,38.23s-16.98,38.23-37.9,38.23c-2.56,0-5.05-.26-7.49-.74-4.75,8.46-13.82,14.21-24.15,14.21-4.21,0-8.36-.95-12.14-2.79-4.81,11.3-16.01,19.24-29.06,19.24s-25.18-8.59-29.64-20.66c-1.98.42-4,.63-6.03.63-16.21,0-29.31-13.3-29.31-29.64,0-10.98,5.9-20.53,14.66-25.7-1.86-4.28-2.81-8.89-2.81-13.56,0-18.85,15.3-34.09,34.16-34.09,11.04,0,20.92,5.26,27.12,13.43"/>
    </g>
    <path class="cls-6" d="m50.23,89.75c-.11.29.04.35.07.4.33.24.67.41,1,.61,1.8.95,3.49,1.23,5.26,1.23,3.6,0,5.84-1.92,5.84-5v-.06c0-2.85-2.53-3.89-4.89-4.64l-.31-.1c-1.79-.58-3.33-1.08-3.33-2.26v-.06c0-1.01.9-1.75,2.3-1.75,1.55,0,3.4.52,4.58,1.17,0,0,.35.23.48-.11.07-.18.67-1.8.74-1.98.07-.19-.05-.33-.17-.41-1.36-.83-3.23-1.39-5.17-1.39h-.36c-3.3,0-5.6,2-5.6,4.85v.06c0,3.01,2.54,3.99,4.92,4.67l.38.12c1.73.53,3.23.99,3.23,2.21v.06c0,1.12-.98,1.95-2.54,1.95-.61,0-2.54-.01-4.64-1.34-.25-.15-.4-.25-.59-.37-.1-.06-.36-.18-.47.16l-.71,1.98m52.75,0c-.11.29.04.35.08.4.33.24.67.41,1,.61,1.8.95,3.49,1.23,5.26,1.23,3.6,0,5.84-1.92,5.84-5v-.06c0-2.85-2.52-3.89-4.89-4.64l-.31-.1c-1.79-.58-3.33-1.08-3.33-2.26v-.06c0-1.01.9-1.75,2.3-1.75,1.55,0,3.39.52,4.58,1.17,0,0,.35.23.48-.11.07-.18.67-1.8.73-1.98.07-.19-.05-.33-.17-.41-1.36-.83-3.23-1.39-5.17-1.39h-.36c-3.3,0-5.6,2-5.6,4.85v.06c0,3.01,2.54,3.99,4.92,4.67l.38.12c1.74.53,3.23.99,3.23,2.21v.06c0,1.12-.98,1.95-2.54,1.95-.61,0-2.55-.01-4.64-1.34-.25-.15-.4-.25-.59-.37-.07-.04-.37-.16-.47.16l-.71,1.98m36.03-6.04c0,1.74-.33,3.12-.96,4.09-.64.96-1.59,1.43-2.93,1.43s-2.29-.47-2.92-1.43c-.63-.97-.95-2.35-.95-4.09s.32-3.11.95-4.07c.63-.96,1.58-1.41,2.92-1.41s2.3.46,2.93,1.41c.64.96.96,2.33.96,4.07m3.01-3.23c-.3-1-.76-1.88-1.37-2.62-.61-.74-1.39-1.33-2.31-1.76-.92-.43-2-.65-3.23-.65s-2.31.22-3.23.65c-.92.43-1.7,1.02-2.31,1.76-.61.74-1.07,1.61-1.37,2.62-.29.99-.44,2.08-.44,3.23s.15,2.24.44,3.23c.3,1,.76,1.88,1.37,2.62.61.74,1.39,1.32,2.31,1.74.92.42,2.01.63,3.23.63s2.31-.21,3.22-.63c.92-.42,1.7-1.01,2.31-1.74.61-.74,1.07-1.61,1.37-2.62.29-.99.44-2.08.44-3.23s-.15-2.24-.44-3.23m24.73,8.27c-.1-.29-.38-.18-.38-.18-.44.17-.9.32-1.4.4-.5.08-1.06.12-1.65.12-1.45,0-2.62-.43-3.44-1.29-.83-.86-1.3-2.24-1.29-4.11,0-1.7.42-2.98,1.16-3.96.73-.97,1.85-1.47,3.34-1.47,1.24,0,2.19.14,3.18.46,0,0,.24.1.35-.21.26-.73.46-1.25.74-2.05.08-.23-.12-.33-.19-.35-.39-.15-1.31-.4-2.01-.51-.65-.1-1.41-.15-2.26-.15-1.27,0-2.39.22-3.35.65-.96.43-1.78,1.02-2.42,1.76s-1.14,1.61-1.47,2.62c-.33.99-.49,2.09-.49,3.24,0,2.49.67,4.51,2,5.99,1.33,1.49,3.33,2.23,5.94,2.23,1.54,0,3.13-.31,4.26-.76,0,0,.22-.1.12-.36l-.74-2.04m5.26-6.72c.14-.97.41-1.78.83-2.4.62-.96,1.58-1.48,2.91-1.48s2.22.53,2.85,1.48c.42.63.6,1.47.67,2.4h-7.3s.03,0,.03,0Zm10.14-2.13c-.26-.96-.89-1.94-1.3-2.38-.66-.7-1.3-1.2-1.94-1.47-.92-.39-1.92-.59-2.92-.59-1.27,0-2.43.22-3.36.65-.94.44-1.72,1.04-2.34,1.79-.62.75-1.08,1.63-1.38,2.65-.3,1-.45,2.1-.45,3.25s.16,2.27.46,3.25c.31.99.81,1.87,1.48,2.59.67.73,1.53,1.3,2.56,1.7,1.03.4,2.27.6,3.7.6,2.94,0,4.49-.67,5.13-1.02.11-.06.22-.17.09-.49l-.67-1.87c-.1-.28-.38-.18-.38-.18-.73.27-1.76.76-4.18.76-1.58,0-2.75-.47-3.49-1.2-.75-.75-1.12-1.84-1.18-3.39h10.2s.27,0,.3-.26c.01-.11.35-2.09-.3-4.38h-.01Zm-91.69,2.13c.14-.97.41-1.78.83-2.4.63-.96,1.58-1.48,2.91-1.48s2.22.53,2.85,1.48c.42.63.6,1.47.67,2.4h-7.3s.03,0,.03,0Zm10.14-2.13c-.26-.96-.89-1.94-1.3-2.38-.66-.7-1.3-1.2-1.94-1.47-.92-.39-1.92-.59-2.92-.59-1.27,0-2.43.22-3.36.65-.94.44-1.72,1.04-2.34,1.79-.62.75-1.08,1.63-1.38,2.65-.3,1-.45,2.1-.45,3.25s.15,2.27.46,3.25c.31.99.81,1.87,1.47,2.59.67.73,1.53,1.3,2.56,1.7,1.03.4,2.27.6,3.7.6,2.94,0,4.49-.67,5.13-1.02.11-.06.22-.17.09-.49l-.67-1.87c-.1-.28-.38-.18-.38-.18-.73.27-1.76.76-4.18.76-1.58,0-2.75-.47-3.49-1.2-.75-.75-1.12-1.84-1.18-3.39h10.2s.27,0,.3-.26c.01-.11.35-2.09-.3-4.38h0Zm-32.16,8.78c-.4-.32-.46-.4-.59-.6-.2-.31-.31-.76-.31-1.32,0-.89.3-1.54.91-1.97,0,0,.88-.76,2.96-.74.93.02,1.85.1,2.76.24v4.63h0s-1.29.28-2.75.37c-2.07.12-2.99-.6-2.98-.59h0Zm4.06-7.17c-.41-.03-.95-.05-1.59-.05-.87,0-1.72.11-2.51.32-.79.21-1.51.55-2.12.99-.62.44-1.12,1.01-1.48,1.68-.36.67-.54,1.46-.54,2.35s.16,1.69.47,2.32c.3.63.76,1.18,1.33,1.59.57.41,1.27.72,2.07.9.8.18,1.7.28,2.7.28,1.05,0,2.09-.09,3.09-.26.86-.15,1.71-.31,2.56-.5.34-.08.72-.18.72-.18.25-.06.23-.33.23-.33v-9.3c0-2.04-.55-3.56-1.63-4.49-1.07-.94-2.64-1.41-4.67-1.41-.76,0-2,.1-2.73.25,0,0-2.22.43-3.14,1.15,0,0-.2.12-.09.4l.72,1.94c.09.25.33.17.33.17,0,0,.08-.03.17-.08,1.96-1.07,4.44-1.03,4.44-1.03,1.1,0,1.95.22,2.52.66.56.43.84,1.07.84,2.43v.43c-.87-.13-1.68-.2-1.68-.2v-.02Zm81.99-5.25c.06-.14,0-.3-.14-.36,0,0,0,0,0,0-.17-.07-1.04-.25-1.7-.29-1.28-.08-1.99.14-2.63.42-.63.28-1.33.74-1.72,1.27v-1.24c0-.17-.12-.31-.29-.31h-2.61c-.17,0-.29.14-.29.31v15.17c0,.17.14.31.31.31h2.67c.17,0,.31-.14.31-.31v-7.62c0-1.02.11-2.03.34-2.67.22-.63.52-1.14.89-1.5.35-.35.78-.61,1.26-.76.45-.13.91-.19,1.37-.19.53,0,1.12.14,1.12.14.2.02.31-.1.37-.28.17-.47.67-1.86.77-2.14"/>
    <path class="cls-6" d="m129.53,69.25c-.33-.1-.67-.18-1.01-.24-.46-.08-.92-.11-1.38-.11-1.84,0-3.29.52-4.31,1.55-1.01,1.02-1.7,2.57-2.05,4.62l-.12.69h-2.31s-.28-.01-.34.3l-.38,2.12c-.03.2.06.33.33.33h2.25l-2.28,12.75c-.18,1.03-.38,1.87-.61,2.51-.22.63-.44,1.1-.71,1.45-.26.33-.51.58-.93.72-.35.12-.76.17-1.2.17-.25,0-.57-.04-.82-.09-.24-.05-.37-.1-.55-.18,0,0-.26-.1-.37.16-.08.22-.68,1.87-.76,2.07-.07.2.03.36.16.41.3.11.52.18.93.27.57.13,1.04.14,1.49.14.94,0,1.79-.13,2.5-.39.71-.26,1.33-.71,1.88-1.31.59-.66.97-1.34,1.32-2.28.35-.93.65-2.08.89-3.42l2.29-12.98h3.36s.28.01.34-.3l.38-2.12c.03-.2-.06-.33-.33-.33h-3.26c.02-.07.16-1.22.54-2.3.16-.46.46-.83.71-1.09.24-.24.53-.42.85-.53.35-.11.72-.16,1.09-.16.31,0,.61.04.84.08.32.07.44.1.52.13.33.1.38,0,.44-.16l.78-2.14c.08-.23-.11-.33-.19-.36m-45.51,22.03c0,.17-.12.31-.29.31h-2.7c-.17,0-.29-.14-.29-.31v-21.74c0-.17.12-.31.29-.31h2.7c.17,0,.29.14.29.31v21.74"/>
  </g>
</svg>