<?xml version="1.0" encoding="UTF-8"?>
<svg id="Layer_1" data-name="Layer 1" xmlns="http://www.w3.org/2000/svg" viewBox="0 0 200 200">
  <defs>
    <style>
      .cls-1 {
        fill: none;
      }

      .cls-2 {
        fill: #07b6d5;
      }
    </style>
  </defs>
  <rect class="cls-1" width="200" height="200"/>
  <rect class="cls-1" x="25" width="175" height="175" rx="21.67" ry="21.67"/>
  <path class="cls-2" d="m110.59,34.99c-30.79.98-39.94,22.97-42.03,34.89,2.73-4.42,11.34-14.11,24.02-14.11,14.77,0,26.02,16.49,32.88,21.64,8.34,6.25,25.09,14.51,47.09,7.82,17.54-5.34,25.67-23.96,27.45-32.79-8.48,11.53-21.35,18.46-37.27,10.29-10.96-5.62-19.16-28.79-52.14-27.74Z"/>
  <path class="cls-2" d="m67.03,87.32c-30.79.98-39.94,22.97-42.03,34.89,2.73-4.42,11.34-14.11,24.02-14.11,14.77,0,26.02,16.49,32.88,21.64,8.34,6.25,25.09,14.51,47.09,7.82,17.54-5.34,25.67-23.96,27.45-32.79-8.48,11.53-21.35,18.46-37.27,10.29-10.96-5.62-19.16-28.79-52.14-27.74Z"/>
</svg>