<?xml version="1.0" encoding="UTF-8"?>
<svg id="Layer_1" data-name="Layer 1" xmlns="http://www.w3.org/2000/svg" viewBox="0 0 200 200">
  <defs>
    <style>
      .cls-1, .cls-2, .cls-3, .cls-4 {
        fill: none;
      }

      .cls-2 {
        stroke-width: 5.67px;
      }

      .cls-2, .cls-5, .cls-6, .cls-3, .cls-7, .cls-4, .cls-8, .cls-9, .cls-10, .cls-11, .cls-12, .cls-13, .cls-14 {
        stroke: #000;
      }

      .cls-5 {
        stroke-width: 8px;
      }

      .cls-5, .cls-6 {
        stroke-miterlimit: 10;
      }

      .cls-5, .cls-6, .cls-7 {
        fill: #ccc;
      }

      .cls-3 {
        stroke-width: 18.91px;
      }

      .cls-8 {
        fill: #66fe98;
      }

      .cls-8, .cls-9, .cls-10, .cls-11, .cls-12, .cls-13, .cls-14 {
        stroke-width: .95px;
      }

      .cls-9 {
        fill: #fefefe;
      }

      .cls-10 {
        fill: #45fe02;
      }

      .cls-11 {
        fill: gray;
      }

      .cls-12 {
        fill: #019833;
      }

      .cls-13 {
        fill: #017d17;
      }

      .cls-14 {
        fill: #005d04;
      }
    </style>
  </defs>
  <rect class="cls-1" width="200" height="200"/>
  <rect class="cls-1" x="25" width="175" height="175" rx="21.67" ry="21.67"/>
  <g id="layer1">
    <g id="g3699">
      <path id="path2836" class="cls-12" d="m111.51,11.83L35.86,87.58l75.34,75.44,75.65-75.75L111.51,11.83Z"/>
      <path id="path2838" class="cls-8" d="m111.19,12.15v-6.63L28.92,87.9h6.93L111.19,12.15Z"/>
      <path id="path2840" class="cls-10" d="m111,12.15v-6.63l82.27,82.38h-6.93L111,12.15Z"/>
      <path id="path2842" class="cls-13" d="m111.19,163.46v6.63L28.92,87.71h6.93l75.34,75.75Z"/>
      <path id="path3650" class="cls-3" d="m44.19,13.89h53.05l3.23,3.24v9.93l-2.56,3.12h-5.8v49.32l49.93-49.32h-8.25l-2.9-3.12v-10.49l2.67-2.46h53.72l2.67,2.68v9.82l-121.47,124.76h-13.82l-4-2.31V29.73h-6.7l-2.45-2.46v-10.49l2.67-2.9h0Z"/>
      <path id="path2844" class="cls-14" d="m111,163.46v6.63l82.27-82.38h-6.93l-75.34,75.75Z"/>
      <path id="path2846" class="cls-2" d="m110.97,4.91L28.39,87.6l82.24,82.35,82.58-82.69L110.97,4.91Z"/>
      <path id="path3640" class="cls-9" d="m97.8,18.93l2.99-1.58-3.07-3.08h-53.51l-2.72,2.72v10.3l3.01,3.02,1.44-3.02-1.89-1.89v-7.26l1.42-1.26h51.06l1.26,2.05h0Z"/>
      <path id="path3632" class="cls-4" d="m135.63,16.56l-1.89,1.89v6.95l1.65,1.66h8.74v6.71l-57.84,58.7V27.14h9.61l1.97-1.97v-7.03l-1.82-1.41h-50.58l-1.65,1.66v7.18l1.68,1.68h8.8v120.3l1.65,1.66h10L187.16,23.98v-5.52l-1.89-1.89h-49.65Z"/>
      <path id="path3646" class="cls-9" d="m54.22,27.05v120.52l1.56,1.79-1.22,2.33-3.46-3.45V30.18l3.12-3.12Z"/>
      <path id="path3644" class="cls-11" d="m45.57,27.05l-.89,2.9h6.46l3.57-2.9h-9.14Z"/>
      <path id="path3638" class="cls-9" d="m134.36,30.31l1.42-2.92-2.05-1.89v-6.47l2.36-2.37h49.33l1.89,2.53,2.68-1.89-2.76-2.76h-53.03l-2.64,2.64v10.38l2.74,2.58m-42.86,49.82l-5.15,12.52,58.16-58.39v-6.94l-53,52.82h0Z"/>
      <path id="path3642" class="cls-11" d="m97.68,18.57l2.56-1.67v10.15l-2.95,2.96h-5.74v50.05l-5.24,12.39V27.05h9.58l1.78-1.45v-7.03h0Z"/>
      <path id="path3622" class="cls-7" d="m135.63,16.56l-1.89,1.89v6.95l1.65,1.66h8.74v6.71l-57.84,58.7V27.14h9.61l1.97-1.97v-7.03l-1.82-1.41h-50.58l-1.65,1.66v7.18l1.68,1.68h8.8v120.3l1.65,1.66h10L187.16,23.98v-5.52l-1.89-1.89h-49.65Z"/>
      <path id="path3636" class="cls-11" d="m187.32,18.62l2.69-1.56v9.76l-122.1,124.93h-12.96l1.24-2.46h9.93L187.16,24.14l.16-5.52Z"/>
      <path id="path3652" class="cls-11" d="m144.21,27.22l-2.73,2.85h-7.13l1.67-2.85h8.19Z"/>
      <g id="g3673">
        <path id="path3671" class="cls-5" d="m115.09,97.66c-.09.02-.18.06-.25.12l-2.34,2.02c-.07.06-.12.14-.15.23l-2.34,6.57c-.07.2-.02.42.12.57l1.79,1.8c.1.1.24.15.39.15h7.24c.14,0,.28-.05.39-.15l1.89-1.91c.07-.07.11-.15.14-.23l2.01-6.92c.06-.19,0-.4-.14-.54l-1.56-1.56c-.1-.1-.24-.15-.39-.15h-6.69s-.07,0-.11,0Zm-13.27,18.53c-.2.04-.36.2-.41.4l-.9,3.56c-.07.29.1.59.4.66.04.01.08.02.13.02h4.26l-10.56,30.2c-.1.29.06.59.34.69.05.02.11.03.17.03h15.38c.24,0,.45-.15.52-.37l1.01-3.25c.09-.29-.07-.59-.36-.68-.05-.02-.11-.02-.16-.02h-3.48l10.45-30.52c.1-.29-.06-.59-.34-.69-.05-.02-.11-.03-.17-.03h-16.16s-.07,0-.11,0Zm48.93.11c-.12.02-.22.09-.3.18l-3.2,3.62h-5.09l-3.39-3.52c-.1-.1-.24-.16-.39-.17h-12.15c-.23,0-.43.14-.51.36l-1.12,3.34c-.1.29.06.59.34.69.05.02.11.03.17.03h3.25l-10.12,29.87c-.1.29.06.59.34.69.05.02.11.03.17.03h12.94c.23,0,.43-.14.51-.36l.99-2.91c.1-.29-.06-.59-.34-.69-.05-.02-.11-.03-.17-.03h-2.26l6.45-20.34h11.68l-7.36,23.63c-.09.29.07.59.36.68.05.02.11.02.16.02h12.48c.22,0,.41-.13.5-.33l1.12-2.68c.11-.28-.03-.6-.31-.71-.06-.02-.13-.04-.19-.04h-2.26l6.56-20.69h11.12l-7.47,23.74c-.09.29.07.59.36.68.05.02.11.02.16.02h13.71c.23,0,.43-.14.51-.35l1.12-2.91c.1-.28-.04-.6-.32-.7-.06-.02-.12-.03-.19-.03h-2.72l8.26-26.86c.06-.17.02-.35-.08-.5l-2.57-3.45c-.11-.13-.27-.21-.44-.21h-9.8c-.15,0-.3.06-.4.17l-3.09,3.4h-5.41l-3.2-3.51c-.1-.11-.25-.17-.4-.17h-7.9s-.07,0-.11,0Z"/>
        <path id="path3665" class="cls-6" d="m115.2,98.2l-2.34,2.02-2.34,6.57,1.79,1.8h7.24l1.89-1.91,2.01-6.92-1.56-1.56h-6.69Zm-13.27,18.53l-.9,3.56h5.02l-10.81,30.92h15.38l1.01-3.25h-4.23l10.7-31.24h-16.16Zm48.93.11l-3.35,3.8h-5.57l-3.56-3.69h-12.15l-1.12,3.34h4.01l-10.37,30.59h12.94l.99-2.91h-3.01l6.8-21.42h12.83l-7.58,24.33h12.48l1.12-2.68h-3.01l6.91-21.76h12.26l-7.7,24.44h13.71l1.12-2.91h-3.46l8.48-27.56-2.57-3.45h-9.8l-3.24,3.56h-5.9l-3.35-3.67h-7.9Z"/>
      </g>
    </g>
  </g>
</svg>